<?xml version="1.0" encoding="UTF-8"?>
<svg width="230px" height="99px" viewBox="0 0 230 99" version="1.1" xmlns="http://www.w3.org/2000/svg" xmlns:xlink="http://www.w3.org/1999/xlink">
    <!-- Generator: Sketch 46.2 (44496) - http://www.bohemiancoding.com/sketch -->
    <title>Artboard</title>
    <desc>Created with Sketch.</desc>
    <defs>
        <polygon id="path-1" points="0.00721912351 38.9524128 0.00721912351 0.00047706422 75.4602948 0.00047706422 150.913371 0.00047706422 150.913371 38.9524128 0.00721912351 38.9524128"></polygon>
    </defs>
    <g id="Page-1" stroke="none" stroke-width="1" fill="none" fill-rule="evenodd">
        <g id="Artboard">
            <g id="Group" transform="translate(16.000000, 16.000000)">
                <path d="M183.685243,40.6375665 L181.997196,40.7976517 L176.735454,41.2982203 L178.249997,43.3740082 C178.137943,43.4478844 178.027093,43.5215188 177.915039,43.5956368 C177.502967,43.8701031 177.089691,44.1449322 176.67762,44.4088794 L174.684736,45.6506281 C174.628107,45.6848457 174.573887,45.7179751 174.517257,45.7519509 C171.442385,47.6134857 168.860312,49.0558246 166.407162,50.2814922 C160.732144,53.1817674 154.679996,55.6455564 148.430247,57.5982576 C145.269828,58.5704972 142.052779,59.4116701 138.871877,60.0975942 C135.594585,60.8080631 132.302833,61.360744 129.088194,61.7390723 C125.910907,62.119577 122.67699,62.3587376 119.481027,62.4478485 C118.661101,62.4676777 117.83985,62.4774715 117.019563,62.4774715 C114.584366,62.4774715 112.154832,62.390537 109.768312,62.2170307 C103.273729,61.7431833 96.8843335,60.6095284 90.7889302,58.8392808 C84.6412348,57.0287701 78.8882604,54.5730821 73.6974863,51.5356947 C70.9852854,49.9267414 68.4833374,48.1942179 66.2616461,46.3869718 C63.8793433,44.4231468 61.7583806,42.3532835 59.9553875,40.2377162 C59.9369527,40.2159523 59.9174336,40.1945512 59.8989988,40.1727873 C59.651033,39.8738971 59.41114,39.5765787 59.1771509,39.2802276 C57.4495838,37.092114 56.0981825,34.9674784 55.0601722,32.812857 C54.6074962,31.8819687 54.2200045,30.9431003 53.8870942,30 C53.3332076,30.1739899 52.7323304,30.2664863 52.0915714,30.2664863 C52.0604853,30.2664863 52.0309656,30.2626172 52,30.2622544 C52.3225483,31.3989321 52.7248601,32.532466 53.206092,33.6580199 C53.3403164,33.9754095 53.4812882,34.2923153 53.6280434,34.6091003 C53.6784077,34.7180405 53.7333506,34.8268597 53.7852812,34.9357999 C53.8843229,35.1431611 53.9827622,35.3506431 54.0872259,35.5581252 C54.1543381,35.6914892 54.2263904,35.8250951 54.2957919,35.9584591 C54.3909779,36.1412755 54.4853206,36.3240919 54.5848443,36.50715 C54.6638849,36.6523633 54.747504,36.7978184 54.8293159,36.9432735 C54.9258273,37.1147243 55.0214954,37.2861751 55.1219829,37.4579886 C55.2110241,37.6104565 55.3044029,37.7631662 55.3965767,37.9159968 C55.4965823,38.081402 55.596106,38.2469282 55.6998468,38.4128171 C55.7982861,38.5704842 55.900581,38.7286348 56.0025144,38.8867855 C56.1067372,39.0485635 56.2110804,39.2103414 56.3189178,39.372603 C56.4263937,39.534381 56.5372433,39.6967635 56.6484544,39.859146 C56.6893001,39.9187548 56.7280974,39.9780009 56.7693046,40.0376096 C56.8390675,40.1384488 56.9103969,40.2396507 56.9814852,40.3407317 C57.0971544,40.5050488 57.2157152,40.6699705 57.3351196,40.8351339 C57.5079004,41.0740527 57.6798378,41.3128505 57.8606913,41.5535829 C59.630309,43.8553521 61.7352467,46.1173418 64.1192363,48.2765578 C66.3218904,50.2442519 68.8150428,52.143148 71.5304968,53.9201665 C76.7405491,57.2815935 82.5664192,60.0566056 88.8399048,62.1733821 C95.0911,64.25183 101.695086,65.6727677 108.457033,66.4052423 C112.145072,66.8014653 115.91926,67 119.710076,67 C120.7317,67 121.754046,66.9856117 122.776996,66.9567141 L123.084242,66.947404 C123.202321,66.9441394 123.3204,66.940633 123.439684,66.9370057 C125.506065,66.8737697 127.597749,66.7514084 129.660516,66.5734285 C133.093239,66.2834856 136.616329,65.8108473 140.130984,65.1699018 C143.552864,64.5502366 147.020529,63.7656497 150.439998,62.8381469 C157.209054,60.9732265 163.798582,58.5532071 170.013389,55.6545037 C172.506301,54.5181888 175.106447,53.1990576 178.128304,51.5382338 C178.446394,51.3636393 178.766894,51.1866267 179.093418,51.0044149 L181.275469,49.756137 C181.668262,49.5247147 182.055031,49.2877305 182.443004,49.05123 L183.737053,50.7812145 L185.555228,47.1183581 L186.998683,44.2011555 L189,40.1360306 L183.685243,40.6375665" id="Fill-16" fill="#339ECC"></path>
                <path d="M50.3893001,29.530782 C47.8825453,28.8628492 46.2755102,26.6136483 46.2755102,23.5282971 C46.2755102,19.7667046 48.5880282,17.2589763 52,17.2589763 C55.4114832,17.2589763 57.7243676,19.7667046 57.7243676,23.4715825 C57.7243676,25.9246431 56.7364473,27.8384929 55.1060793,28.8772988 C55.4361598,29.8129105 55.8268324,30.744669 56.2845717,31.6694435 C57.3373599,33.8159318 58.7303679,35.9353271 60.5215004,38.1278133 C65.8021773,35.4973837 69,30.2595236 69,23.4715825 C69,13.6111744 62.1766671,7 52,7 C41.8228442,7 35,13.6111744 35,23.5282971 C35,33.3887052 41.8228442,40 52,40 C53.1196105,40 54.1958537,39.9154698 55.2297068,39.7598958 C53.8280253,37.7097382 52.7034062,35.6996782 51.8287295,33.6687867 C51.2329477,32.2996869 50.7572506,30.917703 50.3893001,29.530782" id="Fill-17" fill="#339ECC"></path>
                <g id="Group-22">
                    <mask id="mask-2" fill="white">
                        <use xlink:href="#path-1"></use>
                    </mask>
                    <g id="Clip-19"></g>
                    <path d="M76.713655,38.1619174 C76.8274765,38.5571651 77.2830032,38.9524128 77.7388908,38.9524128 L86.5658335,38.9524128 C87.0217211,38.9524128 87.5343992,38.5571651 87.7048908,38.1619174 L92.0900271,23.145844 L96.4751633,38.1619174 C96.6462566,38.5571651 97.1588143,38.9524128 97.614341,38.9524128 L112.879178,38.9524128 C110.69816,38.3191101 109.992611,36.7322752 109.992611,35.368945 C109.992611,33.7122202 111.152965,31.595367 115.099178,31.595367 C115.732897,31.595367 116.293342,31.6490367 116.789055,31.7454037 L116.787972,31.1351193 L111.245851,31.1351193 C110.828225,31.1351193 110.549687,30.905055 110.503124,30.5829174 L110.503124,28.5121009 C110.503124,21.1950092 116.67752,19.0780367 116.67752,15.718789 C116.67752,14.5682294 115.42428,13.9240734 114.634869,13.9240734 C112.917319,13.9240734 110.967433,14.5223119 109.806719,14.890367 C109.574624,14.9364037 109.249523,14.7982936 109.20332,14.5682294 C109.20332,14.5682294 107.578416,8.58572477 107.439087,8.30962385 C107.386628,8.15374312 107.395892,8.0136055 107.47037,7.90352294 L104.676208,7.90352294 C104.16365,7.90352294 103.708124,8.24211927 103.594302,8.69401835 L100.632657,21.0572569 L97.5575506,8.69401835 C97.4437291,8.12929358 97.3865777,7.90352294 96.5323147,7.90352294 L87.6482207,7.90352294 C87.2494845,7.90352294 86.7369267,8.12929358 86.6229849,8.69401835 L83.5475179,21.0572569 L80.5862335,8.69401835 C80.472412,8.24211927 80.0165243,7.90352294 79.5039665,7.90352294 L68.0000526,7.90352294 C67.5446462,7.90352294 67.2597315,8.29877064 67.4308247,8.69401835 L76.713655,38.1619174" id="Fill-18" fill="#F3B62F" mask="url(#mask-2)"></path>
                    <path d="M31.7216709,0.00047706422 L21.0717793,0.00047706422 C20.6161323,0.00047706422 20.2745474,0.395247706 20.2745474,0.847146789 L20.2745474,15.5812752 L12.3015068,15.5812752 L12.3015068,0.847146789 C12.3015068,0.395247706 11.9596813,0.00047706422 11.4471235,0.00047706422 L0.79747251,0.00047706422 C0.398736255,0.00047706422 0,0.395247706 0,0.847146789 L0,38.1619174 C0,38.5571651 0.398736255,38.9524128 0.79747251,38.9524128 L11.4471235,38.9524128 C11.9596813,38.9524128 12.3015068,38.5571651 12.3015068,38.1619174 L12.3015068,25.5168532 L20.2745474,25.5168532 L20.2745474,38.1619174 C20.2745474,38.5571651 20.6161323,38.9524128 21.0717793,38.9524128 L31.7216709,38.9524128 C32.233988,38.9524128 32.5758135,38.5571651 32.5758135,38.1619174 L32.5758135,0.847146789 C32.5758135,0.395247706 32.233988,0.00047706422 31.7216709,0.00047706422" id="Fill-20" fill="#83BE42" mask="url(#mask-2)"></path>
                    <path d="M128.531681,10.1617064 L131.492725,10.1617064 C135.878343,10.1617064 138.839386,13.8874587 138.839386,19.4761468 C138.839386,25.0649541 135.878343,28.7911835 131.492725,28.7911835 L128.531681,28.7911835 L128.531681,10.1617064 Z M126.195092,15.1205505 C126.195092,22.2074587 119.648911,23.7719908 119.648911,28.5121009 L119.648911,30.5829174 C119.648911,30.905055 119.370253,31.1351193 118.998829,31.1351193 L116.800004,31.1351193 L116.800004,31.7476697 C119.418741,32.2611101 120.205986,33.9771101 120.205986,35.368945 C120.205986,36.7140275 119.544955,38.2759358 117.423496,38.9256972 C117.480527,38.9416789 117.53852,38.9524128 117.596875,38.9524128 L130.809315,38.9524128 C142.883299,38.9524128 150.913371,31.1055413 150.913371,19.4761468 C150.913371,7.73452294 142.883299,0.00047706422 130.809315,0.00047706422 L117.596875,0.00047706422 C117.19874,0.00047706422 116.800004,0.395247706 116.800004,0.847146789 L116.800004,6.18370642 C123.336319,6.5772844 126.195092,10.2528257 126.195092,15.1205505 L126.195092,15.1205505 Z" id="Fill-21" fill="#DC3E38" mask="url(#mask-2)"></path>
                </g>
                <path d="M170,29.7410237 C166.588028,29.7410237 164.27551,27.2332954 164.27551,23.5284175 C164.27551,19.7667046 166.588028,17.2589763 170,17.2589763 C173.41075,17.2589763 175.72449,19.7667046 175.72449,23.4715825 C175.72449,27.2332954 173.41075,29.7410237 170,29.7410237 Z M170,7 C159.822722,7 153,13.6112948 153,23.5284175 C153,33.3887052 159.822722,40 170,40 C180.176056,40 187,33.3887052 187,23.4715825 C187,13.6112948 180.176056,7 170,7 L170,7 Z" id="Fill-23" fill="#339ECC"></path>
                <path d="M193.5,39 C190.221831,39 188,36.5890529 188,33.0273061 C188,29.4109471 190.221831,27 193.5,27 C196.776995,27 199,29.4109471 199,32.9726939 C199,36.5890529 196.776995,39 193.5,39" id="Fill-24" fill="#83BE42"></path>
            </g>
        </g>
    </g>
</svg>